STARTFONT 2.1
COMMENT $XConsortium: luIS12.bdf,v 1.7 94/04/02 15:59:48 gildea Exp $
COMMENT  (c) Copyright Bigelow & Holmes 1986, 1985. Lucida is a registered
COMMENT  trademark of Bigelow & Holmes. See LEGAL NOTICE file for terms 
COMMENT  of the license. 
COMMENT GRID 0012 0012 0200 0200
FONT -RFX-Serene-Medium-I-Normal-Sans-12-120-75-75-P-71-iso10646-0400
SIZE 12 72 72
FONTBOUNDINGBOX 15 13 -2 -2
STARTPROPERTIES 24
FONTNAME_REGISTRY ""
FOUNDRY "RFX"
FAMILY_NAME "Serene"
WEIGHT_NAME "Medium"
SLANT "I"
SETWIDTH_NAME "Normal"
ADD_STYLE_NAME "Sans"
PIXEL_SIZE 12
POINT_SIZE 120
RESOLUTION_X 75
RESOLUTION_Y 75
SPACING "P"
AVERAGE_WIDTH 71
CHARSET_REGISTRY "iso10646"
CHARSET_ENCODING "0400"
FONT_ASCENT 11
FONT_DESCENT 2
DEFAULT_CHAR 32
COPYRIGHT "Copyright Bigelow & Holmes 1986, 1985."
FACE_NAME "Lucida Sans Italic"
COPYRIGHT2 "Cyrillic glyphs copyright 2000 Dmitry Yu. Bolkhovityanov, bolkhov@inp.nsk.su"
SOURCEDATE "Mon Jul 24 13:36:28 2000"
PKGVERSION "1.1"
ASSEMBLER "cvtbdf.pl (Linux)"
ENDPROPERTIES
CHARS 305
STARTCHAR space
ENCODING 32
SWIDTH 316 0
DWIDTH 4 0
BBX 0 0 0 0
BITMAP
ENDCHAR
STARTCHAR exclam
ENCODING 33
SWIDTH 193 0
DWIDTH 3 0
BBX 3 9 0 0
BITMAP
20
20
20
40
40
40
00
80
80
ENDCHAR
STARTCHAR quotedbl
ENCODING 34
SWIDTH 361 0
DWIDTH 5 0
BBX 3 3 1 7
BITMAP
A0
A0
A0
ENDCHAR
STARTCHAR numbersign
ENCODING 35
SWIDTH 633 0
DWIDTH 8 0
BBX 8 9 0 0
BITMAP
12
12
7F
24
24
24
FE
48
48
ENDCHAR
STARTCHAR dollar
ENCODING 36
SWIDTH 633 0
DWIDTH 8 0
BBX 6 11 1 -1
BITMAP
10
38
54
50
50
30
28
28
A8
70
20
ENDCHAR
STARTCHAR percent
ENCODING 37
SWIDTH 741 0
DWIDTH 9 0
BBX 8 9 1 0
BITMAP
61
92
94
68
18
16
29
49
86
ENDCHAR
STARTCHAR ampersand
ENCODING 38
SWIDTH 701 0
DWIDTH 9 0
BBX 7 9 1 0
BITMAP
18
24
24
28
70
92
8A
8C
72
ENDCHAR
STARTCHAR quotesingle
ENCODING 39
SWIDTH 217 0
DWIDTH 3 0
BBX 1 3 1 7
BITMAP
80
80
80
ENDCHAR
STARTCHAR parenleft
ENCODING 40
SWIDTH 325 0
DWIDTH 4 0
BBX 4 11 1 -1
BITMAP
10
20
40
40
80
80
80
80
80
80
40
ENDCHAR
STARTCHAR parenright
ENCODING 41
SWIDTH 325 0
DWIDTH 4 0
BBX 4 11 -1 -1
BITMAP
20
10
10
10
10
10
10
20
20
40
80
ENDCHAR
STARTCHAR asterisk
ENCODING 42
SWIDTH 470 0
DWIDTH 6 0
BBX 6 5 0 4
BITMAP
10
54
30
A8
20
ENDCHAR
STARTCHAR plus
ENCODING 43
SWIDTH 633 0
DWIDTH 8 0
BBX 6 7 1 1
BITMAP
10
10
10
FC
20
20
20
ENDCHAR
STARTCHAR comma
ENCODING 44
SWIDTH 316 0
DWIDTH 3 0
BBX 2 3 0 -1
BITMAP
40
40
80
ENDCHAR
STARTCHAR minus
ENCODING 45
SWIDTH 633 0
DWIDTH 8 0
BBX 6 1 1 4
BITMAP
FC
ENDCHAR
STARTCHAR period
ENCODING 46
SWIDTH 316 0
DWIDTH 3 0
BBX 1 2 1 0
BITMAP
80
80
ENDCHAR
STARTCHAR slash
ENCODING 47
SWIDTH 482 0
DWIDTH 6 0
BBX 7 11 0 -1
BITMAP
02
02
04
08
08
10
20
20
40
80
80
ENDCHAR
STARTCHAR zero
ENCODING 48
SWIDTH 633 0
DWIDTH 8 0
BBX 6 9 1 0
BITMAP
38
44
44
44
84
88
88
88
70
ENDCHAR
STARTCHAR one
ENCODING 49
SWIDTH 633 0
DWIDTH 8 0
BBX 3 9 3 0
BITMAP
20
E0
20
20
60
40
40
40
40
ENDCHAR
STARTCHAR two
ENCODING 50
SWIDTH 633 0
DWIDTH 8 0
BBX 6 9 1 0
BITMAP
38
44
04
04
08
30
40
80
F8
ENDCHAR
STARTCHAR three
ENCODING 51
SWIDTH 633 0
DWIDTH 8 0
BBX 6 9 1 0
BITMAP
38
44
04
08
70
08
08
88
70
ENDCHAR
STARTCHAR four
ENCODING 52
SWIDTH 633 0
DWIDTH 8 0
BBX 6 9 1 0
BITMAP
18
28
28
48
88
FC
10
10
10
ENDCHAR
STARTCHAR five
ENCODING 53
SWIDTH 633 0
DWIDTH 8 0
BBX 6 9 1 0
BITMAP
3C
20
40
40
70
08
08
90
60
ENDCHAR
STARTCHAR six
ENCODING 54
SWIDTH 633 0
DWIDTH 8 0
BBX 6 9 1 0
BITMAP
18
24
40
40
70
88
88
88
70
ENDCHAR
STARTCHAR seven
ENCODING 55
SWIDTH 633 0
DWIDTH 8 0
BBX 6 9 1 0
BITMAP
7C
04
08
10
20
40
40
80
80
ENDCHAR
STARTCHAR eight
ENCODING 56
SWIDTH 633 0
DWIDTH 8 0
BBX 6 9 1 0
BITMAP
38
44
44
28
50
88
88
90
60
ENDCHAR
STARTCHAR nine
ENCODING 57
SWIDTH 633 0
DWIDTH 8 0
BBX 6 9 1 0
BITMAP
38
44
44
44
38
08
08
90
60
ENDCHAR
STARTCHAR colon
ENCODING 58
SWIDTH 316 0
DWIDTH 3 0
BBX 2 7 1 0
BITMAP
40
40
00
00
00
80
80
ENDCHAR
STARTCHAR semicolon
ENCODING 59
SWIDTH 316 0
DWIDTH 3 0
BBX 3 8 0 -1
BITMAP
20
20
00
00
00
40
40
80
ENDCHAR
STARTCHAR less
ENCODING 60
SWIDTH 633 0
DWIDTH 8 0
BBX 7 7 0 0
BITMAP
06
18
60
80
40
30
0C
ENDCHAR
STARTCHAR equal
ENCODING 61
SWIDTH 633 0
DWIDTH 8 0
BBX 7 3 1 3
BITMAP
7E
00
FC
ENDCHAR
STARTCHAR greater
ENCODING 62
SWIDTH 633 0
DWIDTH 8 0
BBX 7 7 1 0
BITMAP
60
18
04
02
0C
30
C0
ENDCHAR
STARTCHAR question
ENCODING 63
SWIDTH 464 0
DWIDTH 6 0
BBX 5 9 1 0
BITMAP
30
48
08
30
40
40
00
80
80
ENDCHAR
STARTCHAR at
ENCODING 64
SWIDTH 858 0
DWIDTH 11 0
BBX 8 9 2 0
BITMAP
1E
21
47
89
92
92
8D
40
3C
ENDCHAR
STARTCHAR A
ENCODING 65
SWIDTH 687 0
DWIDTH 8 0
BBX 6 9 1 0
BITMAP
04
0C
14
24
44
7C
84
84
84
ENDCHAR
STARTCHAR B
ENCODING 66
SWIDTH 593 0
DWIDTH 7 0
BBX 6 9 1 0
BITMAP
78
44
44
48
F8
84
84
88
F0
ENDCHAR
STARTCHAR C
ENCODING 67
SWIDTH 679 0
DWIDTH 8 0
BBX 7 9 1 0
BITMAP
0C
32
40
40
80
80
80
C4
78
ENDCHAR
STARTCHAR D
ENCODING 68
SWIDTH 743 0
DWIDTH 9 0
BBX 7 9 1 0
BITMAP
7C
46
42
42
C2
84
84
88
F0
ENDCHAR
STARTCHAR E
ENCODING 69
SWIDTH 547 0
DWIDTH 7 0
BBX 6 9 1 0
BITMAP
7C
40
40
40
F0
80
80
80
F8
ENDCHAR
STARTCHAR F
ENCODING 70
SWIDTH 536 0
DWIDTH 6 0
BBX 6 9 1 0
BITMAP
7C
40
40
40
F0
80
80
80
80
ENDCHAR
STARTCHAR G
ENCODING 71
SWIDTH 702 0
DWIDTH 9 0
BBX 7 9 1 0
BITMAP
0C
32
40
40
80
84
84
C4
7C
ENDCHAR
STARTCHAR H
ENCODING 72
SWIDTH 735 0
DWIDTH 9 0
BBX 7 9 1 0
BITMAP
42
42
42
42
FE
84
84
84
84
ENDCHAR
STARTCHAR I
ENCODING 73
SWIDTH 289 0
DWIDTH 4 0
BBX 2 9 1 0
BITMAP
40
40
40
40
C0
80
80
80
80
ENDCHAR
STARTCHAR J
ENCODING 74
SWIDTH 408 0
DWIDTH 5 0
BBX 4 11 0 -2
BITMAP
10
10
10
10
30
20
20
20
20
60
C0
ENDCHAR
STARTCHAR K
ENCODING 75
SWIDTH 635 0
DWIDTH 8 0
BBX 7 9 1 0
BITMAP
42
44
48
50
E0
90
88
8C
86
ENDCHAR
STARTCHAR L
ENCODING 76
SWIDTH 545 0
DWIDTH 7 0
BBX 5 9 1 0
BITMAP
40
40
40
40
C0
80
80
80
F8
ENDCHAR
STARTCHAR M
ENCODING 77
SWIDTH 828 0
DWIDTH 11 0
BBX 9 9 1 0
BITMAP
7380
5280
5280
5480
5480
8900
8900
8100
8100
ENDCHAR
STARTCHAR N
ENCODING 78
SWIDTH 741 0
DWIDTH 9 0
BBX 7 9 1 0
BITMAP
62
62
52
52
54
94
8C
8C
84
ENDCHAR
STARTCHAR O
ENCODING 79
SWIDTH 777 0
DWIDTH 10 0
BBX 8 9 1 0
BITMAP
0E
33
41
41
81
82
82
CC
70
ENDCHAR
STARTCHAR P
ENCODING 80
SWIDTH 575 0
DWIDTH 7 0
BBX 6 9 1 0
BITMAP
78
44
44
44
88
F0
80
80
80
ENDCHAR
STARTCHAR Q
ENCODING 81
SWIDTH 777 0
DWIDTH 10 0
BBX 8 11 1 -2
BITMAP
0E
33
41
41
81
82
82
CC
70
0C
03
ENDCHAR
STARTCHAR R
ENCODING 82
SWIDTH 632 0
DWIDTH 8 0
BBX 6 9 1 0
BITMAP
78
44
44
48
F0
90
90
88
8C
ENDCHAR
STARTCHAR S
ENCODING 83
SWIDTH 553 0
DWIDTH 7 0
BBX 6 9 1 0
BITMAP
38
44
40
60
30
18
08
88
70
ENDCHAR
STARTCHAR T
ENCODING 84
SWIDTH 623 0
DWIDTH 8 0
BBX 7 9 1 0
BITMAP
FE
10
10
10
30
20
20
20
20
ENDCHAR
STARTCHAR U
ENCODING 85
SWIDTH 693 0
DWIDTH 9 0
BBX 7 9 1 0
BITMAP
42
42
42
42
C4
84
84
C8
70
ENDCHAR
STARTCHAR V
ENCODING 86
SWIDTH 687 0
DWIDTH 8 0
BBX 6 9 2 0
BITMAP
84
84
84
88
88
90
A0
C0
80
ENDCHAR
STARTCHAR W
ENCODING 87
SWIDTH 886 0
DWIDTH 11 0
BBX 9 9 2 0
BITMAP
8080
8880
8880
9900
9900
AA00
AA00
CC00
8800
ENDCHAR
STARTCHAR X
ENCODING 88
SWIDTH 620 0
DWIDTH 8 0
BBX 8 9 0 0
BITMAP
61
21
12
14
18
28
48
84
86
ENDCHAR
STARTCHAR Y
ENCODING 89
SWIDTH 608 0
DWIDTH 7 0
BBX 6 9 1 0
BITMAP
84
84
88
88
90
60
40
40
40
ENDCHAR
STARTCHAR Z
ENCODING 90
SWIDTH 578 0
DWIDTH 7 0
BBX 8 9 0 0
BITMAP
3F
02
04
08
10
20
40
80
FC
ENDCHAR
STARTCHAR bracketleft
ENCODING 91
SWIDTH 325 0
DWIDTH 4 0
BBX 5 11 0 -1
BITMAP
38
20
20
20
40
40
40
40
80
80
E0
ENDCHAR
STARTCHAR backslash
ENCODING 92
SWIDTH 482 0
DWIDTH 6 0
BBX 4 11 1 -1
BITMAP
80
80
80
40
40
20
20
20
10
10
10
ENDCHAR
STARTCHAR bracketright
ENCODING 93
SWIDTH 325 0
DWIDTH 4 0
BBX 5 11 -1 -1
BITMAP
38
08
08
10
10
10
10
20
20
20
E0
ENDCHAR
STARTCHAR asciicircum
ENCODING 94
SWIDTH 633 0
DWIDTH 8 0
BBX 5 6 2 2
BITMAP
08
18
28
48
88
88
ENDCHAR
STARTCHAR underscore
ENCODING 95
SWIDTH 500 0
DWIDTH 8 0
BBX 6 1 1 -1
BITMAP
FC
ENDCHAR
STARTCHAR grave
ENCODING 96
SWIDTH 572 0
DWIDTH 7 0
BBX 2 2 3 8
BITMAP
80
40
ENDCHAR
STARTCHAR a
ENCODING 97
SWIDTH 608 0
DWIDTH 8 0
BBX 6 7 1 0
BITMAP
3C
44
44
84
88
98
68
ENDCHAR
STARTCHAR b
ENCODING 98
SWIDTH 608 0
DWIDTH 8 0
BBX 6 10 1 0
BITMAP
20
20
20
58
64
44
84
88
88
F0
ENDCHAR
STARTCHAR c
ENCODING 99
SWIDTH 503 0
DWIDTH 6 0
BBX 5 7 1 0
BITMAP
30
48
80
80
80
80
70
ENDCHAR
STARTCHAR d
ENCODING 100
SWIDTH 608 0
DWIDTH 8 0
BBX 7 10 1 0
BITMAP
02
02
02
3C
44
44
84
88
98
68
ENDCHAR
STARTCHAR e
ENCODING 101
SWIDTH 529 0
DWIDTH 6 0
BBX 5 7 1 0
BITMAP
30
48
88
F0
80
80
70
ENDCHAR
STARTCHAR f
ENCODING 102
SWIDTH 383 0
DWIDTH 5 0
BBX 6 12 0 -2
BITMAP
0C
10
10
7C
20
20
20
40
40
40
80
80
ENDCHAR
STARTCHAR g
ENCODING 103
SWIDTH 608 0
DWIDTH 8 0
BBX 6 9 1 -2
BITMAP
3C
44
44
88
98
68
08
10
E0
ENDCHAR
STARTCHAR h
ENCODING 104
SWIDTH 620 0
DWIDTH 8 0
BBX 6 10 1 0
BITMAP
20
20
20
5C
64
44
44
88
88
88
ENDCHAR
STARTCHAR i
ENCODING 105
SWIDTH 289 0
DWIDTH 4 0
BBX 3 10 1 0
BITMAP
20
20
00
40
40
40
40
80
80
80
ENDCHAR
STARTCHAR j
ENCODING 106
SWIDTH 325 0
DWIDTH 4 0
BBX 5 12 -1 -2
BITMAP
08
08
00
10
10
10
10
10
20
20
20
C0
ENDCHAR
STARTCHAR k
ENCODING 107
SWIDTH 572 0
DWIDTH 7 0
BBX 6 10 1 0
BITMAP
20
20
20
44
48
50
60
90
88
84
ENDCHAR
STARTCHAR l
ENCODING 108
SWIDTH 289 0
DWIDTH 4 0
BBX 3 10 1 0
BITMAP
20
20
20
40
40
40
40
80
80
80
ENDCHAR
STARTCHAR m
ENCODING 109
SWIDTH 934 0
DWIDTH 12 0
BBX 10 7 1 0
BITMAP
5DC0
6640
4440
4440
8880
8880
8880
ENDCHAR
STARTCHAR n
ENCODING 110
SWIDTH 620 0
DWIDTH 8 0
BBX 6 7 1 0
BITMAP
5C
64
44
44
88
88
88
ENDCHAR
STARTCHAR o
ENCODING 111
SWIDTH 566 0
DWIDTH 7 0
BBX 5 7 1 0
BITMAP
30
48
88
88
88
90
60
ENDCHAR
STARTCHAR p
ENCODING 112
SWIDTH 608 0
DWIDTH 8 0
BBX 7 9 0 -2
BITMAP
2C
32
22
42
44
44
78
80
80
ENDCHAR
STARTCHAR q
ENCODING 113
SWIDTH 608 0
DWIDTH 8 0
BBX 6 9 1 -2
BITMAP
3C
44
44
84
88
98
68
10
10
ENDCHAR
STARTCHAR r
ENCODING 114
SWIDTH 478 0
DWIDTH 6 0
BBX 5 7 1 0
BITMAP
58
60
40
C0
80
80
80
ENDCHAR
STARTCHAR s
ENCODING 115
SWIDTH 489 0
DWIDTH 6 0
BBX 6 7 0 0
BITMAP
38
44
60
30
18
88
70
ENDCHAR
STARTCHAR t
ENCODING 116
SWIDTH 383 0
DWIDTH 5 0
BBX 4 9 1 0
BITMAP
20
20
F0
40
40
80
80
80
E0
ENDCHAR
STARTCHAR u
ENCODING 117
SWIDTH 620 0
DWIDTH 8 0
BBX 6 7 1 0
BITMAP
44
44
44
88
88
98
68
ENDCHAR
STARTCHAR v
ENCODING 118
SWIDTH 545 0
DWIDTH 6 0
BBX 5 7 1 0
BITMAP
88
88
88
90
A0
C0
80
ENDCHAR
STARTCHAR w
ENCODING 119
SWIDTH 795 0
DWIDTH 9 0
BBX 8 7 1 0
BITMAP
81
91
91
92
AA
CC
88
ENDCHAR
STARTCHAR x
ENCODING 120
SWIDTH 541 0
DWIDTH 7 0
BBX 6 7 1 0
BITMAP
44
44
28
30
50
88
88
ENDCHAR
STARTCHAR y
ENCODING 121
SWIDTH 548 0
DWIDTH 6 0
BBX 7 9 -1 -2
BITMAP
22
22
22
24
28
30
20
40
80
ENDCHAR
STARTCHAR z
ENCODING 122
SWIDTH 536 0
DWIDTH 7 0
BBX 6 7 1 0
BITMAP
7C
08
10
30
20
40
F8
ENDCHAR
STARTCHAR braceleft
ENCODING 123
SWIDTH 325 0
DWIDTH 4 0
BBX 4 11 0 -1
BITMAP
10
20
40
40
20
C0
20
40
80
80
40
ENDCHAR
STARTCHAR bar
ENCODING 124
SWIDTH 233 0
DWIDTH 3 0
BBX 3 11 0 -1
BITMAP
20
20
20
20
40
40
40
80
80
80
80
ENDCHAR
STARTCHAR braceright
ENCODING 125
SWIDTH 325 0
DWIDTH 4 0
BBX 4 11 0 -1
BITMAP
20
10
10
20
40
30
40
20
20
40
80
ENDCHAR
STARTCHAR asciitilde
ENCODING 126
SWIDTH 633 0
DWIDTH 8 0
BBX 7 2 1 3
BITMAP
72
9C
ENDCHAR
STARTCHAR space
ENCODING 160
SWIDTH 316 0
DWIDTH 4 0
BBX 0 0 0 0
BITMAP
ENDCHAR
STARTCHAR exclamdown
ENCODING 161
SWIDTH 193 0
DWIDTH 3 0
BBX 3 9 0 -2
BITMAP
20
20
00
40
40
40
80
80
80
ENDCHAR
STARTCHAR cent
ENCODING 162
SWIDTH 633 0
DWIDTH 8 0
BBX 6 9 1 0
BITMAP
10
38
54
90
90
A0
A0
78
20
ENDCHAR
STARTCHAR sterling
ENCODING 163
SWIDTH 633 0
DWIDTH 8 0
BBX 6 9 1 0
BITMAP
18
24
20
20
F0
40
40
40
F8
ENDCHAR
STARTCHAR currency
ENCODING 164
SWIDTH 633 0
DWIDTH 8 0
BBX 7 7 1 1
BITMAP
82
7C
44
44
44
7C
82
ENDCHAR
STARTCHAR yen
ENCODING 165
SWIDTH 633 0
DWIDTH 8 0
BBX 7 9 1 0
BITMAP
42
42
44
48
FC
20
F8
20
20
ENDCHAR
STARTCHAR brokenbar
ENCODING 166
SWIDTH 233 0
DWIDTH 3 0
BBX 3 11 0 -1
BITMAP
20
20
20
20
00
00
00
80
80
80
80
ENDCHAR
STARTCHAR section
ENCODING 167
SWIDTH 633 0
DWIDTH 8 0
BBX 6 10 1 -1
BITMAP
18
24
20
50
48
48
28
10
90
60
ENDCHAR
STARTCHAR dieresis
ENCODING 168
SWIDTH 566 0
DWIDTH 7 0
BBX 4 1 3 8
BITMAP
90
ENDCHAR
STARTCHAR copyright
ENCODING 169
SWIDTH 858 0
DWIDTH 11 0
BBX 9 9 1 0
BITMAP
1C00
6300
4D00
9080
9080
9080
4D00
6300
1C00
ENDCHAR
STARTCHAR ordfeminine
ENCODING 170
SWIDTH 392 0
DWIDTH 5 0
BBX 4 5 1 4
BITMAP
30
50
90
B0
D0
ENDCHAR
STARTCHAR guillemotleft
ENCODING 171
SWIDTH 527 0
DWIDTH 7 0
BBX 7 5 0 1
BITMAP
12
6C
90
48
24
ENDCHAR
STARTCHAR logicalnot
ENCODING 172
SWIDTH 633 0
DWIDTH 8 0
BBX 6 3 1 2
BITMAP
FC
04
04
ENDCHAR
STARTCHAR hyphen
ENCODING 173
SWIDTH 313 0
DWIDTH 4 0
BBX 3 1 1 4
BITMAP
E0
ENDCHAR
STARTCHAR registered
ENCODING 174
SWIDTH 633 0
DWIDTH 8 0
BBX 7 7 1 2
BITMAP
38
44
BA
B2
AA
44
38
ENDCHAR
STARTCHAR macron
ENCODING 175
SWIDTH 566 0
DWIDTH 7 0
BBX 3 1 3 8
BITMAP
E0
ENDCHAR
STARTCHAR degree
ENCODING 176
SWIDTH 269 0
DWIDTH 4 0
BBX 4 3 0 6
BITMAP
60
90
60
ENDCHAR
STARTCHAR plusminus
ENCODING 177
SWIDTH 633 0
DWIDTH 8 0
BBX 7 7 1 1
BITMAP
08
08
7E
10
10
00
FC
ENDCHAR
STARTCHAR twosuperior
ENCODING 178
SWIDTH 392 0
DWIDTH 5 0
BBX 5 5 1 4
BITMAP
70
08
30
40
F0
ENDCHAR
STARTCHAR threesuperior
ENCODING 179
SWIDTH 392 0
DWIDTH 5 0
BBX 5 5 1 4
BITMAP
70
08
30
10
E0
ENDCHAR
STARTCHAR acute
ENCODING 180
SWIDTH 566 0
DWIDTH 7 0
BBX 2 2 3 8
BITMAP
40
80
ENDCHAR
STARTCHAR mu
ENCODING 181
SWIDTH 627 0
DWIDTH 8 0
BBX 7 9 0 -2
BITMAP
22
22
22
44
44
4C
B4
80
80
ENDCHAR
STARTCHAR paragraph
ENCODING 182
SWIDTH 633 0
DWIDTH 8 0
BBX 6 10 1 -1
BITMAP
7C
F4
F4
68
28
28
28
50
50
50
ENDCHAR
STARTCHAR periodcentered
ENCODING 183
SWIDTH 316 0
DWIDTH 8 0
BBX 2 2 3 3
BITMAP
C0
C0
ENDCHAR
STARTCHAR cedilla
ENCODING 184
SWIDTH 566 0
DWIDTH 7 0
BBX 3 2 1 -2
BITMAP
20
C0
ENDCHAR
STARTCHAR onesuperior
ENCODING 185
SWIDTH 392 0
DWIDTH 5 0
BBX 3 5 1 4
BITMAP
20
E0
20
40
40
ENDCHAR
STARTCHAR ordmasculine
ENCODING 186
SWIDTH 392 0
DWIDTH 5 0
BBX 4 5 1 4
BITMAP
60
90
90
90
60
ENDCHAR
STARTCHAR guillemotright
ENCODING 187
SWIDTH 527 0
DWIDTH 7 0
BBX 7 5 0 1
BITMAP
48
24
12
6C
90
ENDCHAR
STARTCHAR onequarter
ENCODING 188
SWIDTH 865 0
DWIDTH 11 0
BBX 10 9 1 0
BITMAP
C200
4200
4400
8800
9980
1280
2480
47C0
4100
ENDCHAR
STARTCHAR onehalf
ENCODING 189
SWIDTH 865 0
DWIDTH 11 0
BBX 10 9 1 0
BITMAP
C200
4400
4400
8800
9380
1040
2180
4200
4780
ENDCHAR
STARTCHAR threequarters
ENCODING 190
SWIDTH 865 0
DWIDTH 11 0
BBX 11 9 0 0
BITMAP
6100
1100
6200
1400
ECC0
0940
1240
23E0
2080
ENDCHAR
STARTCHAR questiondown
ENCODING 191
SWIDTH 464 0
DWIDTH 6 0
BBX 5 9 0 -2
BITMAP
08
08
00
10
10
60
80
90
60
ENDCHAR
STARTCHAR Agrave
ENCODING 192
SWIDTH 687 0
DWIDTH 8 0
BBX 6 11 1 0
BITMAP
08
04
00
0C
14
24
44
7C
84
84
84
ENDCHAR
STARTCHAR Aacute
ENCODING 193
SWIDTH 687 0
DWIDTH 8 0
BBX 6 11 1 0
BITMAP
04
08
00
0C
14
24
44
7C
84
84
84
ENDCHAR
STARTCHAR Acircumflex
ENCODING 194
SWIDTH 687 0
DWIDTH 8 0
BBX 6 11 1 0
BITMAP
08
14
00
0C
14
24
44
7C
84
84
84
ENDCHAR
STARTCHAR Atilde
ENCODING 195
SWIDTH 687 0
DWIDTH 8 0
BBX 7 11 1 0
BITMAP
1A
2C
00
0C
14
24
44
7C
84
84
84
ENDCHAR
STARTCHAR Adieresis
ENCODING 196
SWIDTH 687 0
DWIDTH 8 0
BBX 7 10 1 0
BITMAP
12
00
0C
14
24
44
7C
84
84
84
ENDCHAR
STARTCHAR Aring
ENCODING 197
SWIDTH 687 0
DWIDTH 8 0
BBX 6 11 1 0
BITMAP
08
14
08
0C
14
24
44
7C
84
84
84
ENDCHAR
STARTCHAR AE
ENCODING 198
SWIDTH 893 0
DWIDTH 11 0
BBX 10 9 1 0
BITMAP
07C0
0C00
1400
2400
4780
7800
8800
8800
8F80
ENDCHAR
STARTCHAR Ccedilla
ENCODING 199
SWIDTH 679 0
DWIDTH 8 0
BBX 7 11 1 -2
BITMAP
0C
32
40
40
80
80
80
C4
78
20
C0
ENDCHAR
STARTCHAR Egrave
ENCODING 200
SWIDTH 547 0
DWIDTH 7 0
BBX 6 11 1 0
BITMAP
10
08
00
7C
40
40
F0
80
80
80
F8
ENDCHAR
STARTCHAR Eacute
ENCODING 201
SWIDTH 547 0
DWIDTH 7 0
BBX 6 11 1 0
BITMAP
08
10
00
7C
40
40
F0
80
80
80
F8
ENDCHAR
STARTCHAR Ecircumflex
ENCODING 202
SWIDTH 547 0
DWIDTH 7 0
BBX 6 11 1 0
BITMAP
10
28
00
7C
40
40
F0
80
80
80
F8
ENDCHAR
STARTCHAR Edieresis
ENCODING 203
SWIDTH 547 0
DWIDTH 7 0
BBX 6 10 1 0
BITMAP
24
00
7C
40
40
F0
80
80
80
F8
ENDCHAR
STARTCHAR Igrave
ENCODING 204
SWIDTH 289 0
DWIDTH 4 0
BBX 2 11 1 0
BITMAP
80
40
00
40
40
40
C0
80
80
80
80
ENDCHAR
STARTCHAR Iacute
ENCODING 205
SWIDTH 289 0
DWIDTH 4 0
BBX 3 11 1 0
BITMAP
20
40
00
40
40
40
C0
80
80
80
80
ENDCHAR
STARTCHAR Icircumflex
ENCODING 206
SWIDTH 289 0
DWIDTH 4 0
BBX 3 11 1 0
BITMAP
40
A0
00
40
40
40
C0
80
80
80
80
ENDCHAR
STARTCHAR Idieresis
ENCODING 207
SWIDTH 289 0
DWIDTH 4 0
BBX 3 10 1 0
BITMAP
A0
00
40
40
40
C0
80
80
80
80
ENDCHAR
STARTCHAR Eth
ENCODING 208
SWIDTH 743 0
DWIDTH 9 0
BBX 8 9 0 0
BITMAP
3E
23
21
21
F9
42
42
44
78
ENDCHAR
STARTCHAR Ntilde
ENCODING 209
SWIDTH 741 0
DWIDTH 9 0
BBX 7 11 1 0
BITMAP
1A
2C
00
62
62
52
54
94
8C
8C
84
ENDCHAR
STARTCHAR Ograve
ENCODING 210
SWIDTH 777 0
DWIDTH 10 0
BBX 8 11 1 0
BITMAP
08
04
00
0E
33
41
41
82
82
CC
70
ENDCHAR
STARTCHAR Oacute
ENCODING 211
SWIDTH 777 0
DWIDTH 10 0
BBX 8 11 1 0
BITMAP
02
04
00
0E
33
41
41
82
82
CC
70
ENDCHAR
STARTCHAR Ocircumflex
ENCODING 212
SWIDTH 777 0
DWIDTH 10 0
BBX 8 11 1 0
BITMAP
04
0A
00
0E
33
41
41
82
82
CC
70
ENDCHAR
STARTCHAR Otilde
ENCODING 213
SWIDTH 777 0
DWIDTH 10 0
BBX 8 11 1 0
BITMAP
0D
16
00
0E
33
41
41
82
82
CC
70
ENDCHAR
STARTCHAR Odieresis
ENCODING 214
SWIDTH 777 0
DWIDTH 10 0
BBX 8 10 1 0
BITMAP
12
00
0E
33
41
41
82
82
CC
70
ENDCHAR
STARTCHAR multiply
ENCODING 215
SWIDTH 633 0
DWIDTH 8 0
BBX 5 5 2 2
BITMAP
48
50
20
50
90
ENDCHAR
STARTCHAR Oslash
ENCODING 216
SWIDTH 777 0
DWIDTH 10 0
BBX 10 11 0 -1
BITMAP
0040
0740
1980
2280
2480
4080
4900
5100
6600
B800
8000
ENDCHAR
STARTCHAR Ugrave
ENCODING 217
SWIDTH 693 0
DWIDTH 9 0
BBX 7 11 1 0
BITMAP
10
08
00
42
42
42
C4
84
84
C8
70
ENDCHAR
STARTCHAR Uacute
ENCODING 218
SWIDTH 693 0
DWIDTH 9 0
BBX 7 11 1 0
BITMAP
04
08
00
42
42
42
C4
84
84
C8
70
ENDCHAR
STARTCHAR Ucircumflex
ENCODING 219
SWIDTH 693 0
DWIDTH 9 0
BBX 7 11 1 0
BITMAP
08
14
00
42
42
42
C4
84
84
C8
70
ENDCHAR
STARTCHAR Udieresis
ENCODING 220
SWIDTH 693 0
DWIDTH 9 0
BBX 7 10 1 0
BITMAP
24
00
42
42
42
C4
84
84
C8
70
ENDCHAR
STARTCHAR Yacute
ENCODING 221
SWIDTH 608 0
DWIDTH 7 0
BBX 6 11 1 0
BITMAP
10
20
00
84
88
88
90
60
40
40
40
ENDCHAR
STARTCHAR Thorn
ENCODING 222
SWIDTH 575 0
DWIDTH 7 0
BBX 6 9 1 0
BITMAP
40
40
78
44
84
88
F0
80
80
ENDCHAR
STARTCHAR germandbls
ENCODING 223
SWIDTH 595 0
DWIDTH 8 0
BBX 6 11 1 -1
BITMAP
18
24
24
48
50
48
44
84
84
98
80
ENDCHAR
STARTCHAR agrave
ENCODING 224
SWIDTH 608 0
DWIDTH 8 0
BBX 6 10 1 0
BITMAP
20
10
00
3C
44
44
84
88
98
68
ENDCHAR
STARTCHAR aacute
ENCODING 225
SWIDTH 608 0
DWIDTH 8 0
BBX 6 10 1 0
BITMAP
08
10
00
3C
44
44
84
88
98
68
ENDCHAR
STARTCHAR acircumflex
ENCODING 226
SWIDTH 608 0
DWIDTH 8 0
BBX 6 10 1 0
BITMAP
08
14
00
3C
44
44
84
88
98
68
ENDCHAR
STARTCHAR atilde
ENCODING 227
SWIDTH 608 0
DWIDTH 8 0
BBX 6 10 1 0
BITMAP
34
58
00
3C
44
44
84
88
98
68
ENDCHAR
STARTCHAR adieresis
ENCODING 228
SWIDTH 608 0
DWIDTH 8 0
BBX 6 9 1 0
BITMAP
24
00
3C
44
44
84
88
98
68
ENDCHAR
STARTCHAR aring
ENCODING 229
SWIDTH 608 0
DWIDTH 8 0
BBX 6 10 1 0
BITMAP
08
14
08
3C
44
44
84
88
98
68
ENDCHAR
STARTCHAR ae
ENCODING 230
SWIDTH 893 0
DWIDTH 11 0
BBX 9 7 1 0
BITMAP
3300
4C80
0880
7F00
8800
9800
6700
ENDCHAR
STARTCHAR ccedilla
ENCODING 231
SWIDTH 503 0
DWIDTH 6 0
BBX 5 9 1 -2
BITMAP
30
48
80
80
80
80
70
20
C0
ENDCHAR
STARTCHAR egrave
ENCODING 232
SWIDTH 529 0
DWIDTH 6 0
BBX 5 10 1 0
BITMAP
20
10
00
30
48
88
F0
80
80
70
ENDCHAR
STARTCHAR eacute
ENCODING 233
SWIDTH 529 0
DWIDTH 6 0
BBX 5 10 1 0
BITMAP
10
20
00
30
48
88
F0
80
80
70
ENDCHAR
STARTCHAR ecircumflex
ENCODING 234
SWIDTH 529 0
DWIDTH 6 0
BBX 5 10 1 0
BITMAP
20
50
00
30
48
88
F0
80
80
70
ENDCHAR
STARTCHAR edieresis
ENCODING 235
SWIDTH 529 0
DWIDTH 6 0
BBX 5 9 1 0
BITMAP
48
00
30
48
88
F0
80
80
70
ENDCHAR
STARTCHAR igrave
ENCODING 236
SWIDTH 289 0
DWIDTH 4 0
BBX 2 10 1 0
BITMAP
80
40
00
40
40
40
40
80
80
80
ENDCHAR
STARTCHAR iacute
ENCODING 237
SWIDTH 289 0
DWIDTH 4 0
BBX 3 10 1 0
BITMAP
20
40
00
40
40
40
40
80
80
80
ENDCHAR
STARTCHAR icircumflex
ENCODING 238
SWIDTH 289 0
DWIDTH 4 0
BBX 3 10 1 0
BITMAP
40
A0
00
40
40
40
40
80
80
80
ENDCHAR
STARTCHAR idieresis
ENCODING 239
SWIDTH 289 0
DWIDTH 4 0
BBX 3 9 1 0
BITMAP
A0
00
40
40
40
40
80
80
80
ENDCHAR
STARTCHAR eth
ENCODING 240
SWIDTH 556 0
DWIDTH 7 0
BBX 6 10 1 0
BITMAP
10
3C
08
38
48
88
88
88
90
60
ENDCHAR
STARTCHAR ntilde
ENCODING 241
SWIDTH 620 0
DWIDTH 8 0
BBX 6 10 1 0
BITMAP
34
58
00
5C
64
44
44
88
88
88
ENDCHAR
STARTCHAR ograve
ENCODING 242
SWIDTH 566 0
DWIDTH 7 0
BBX 5 10 1 0
BITMAP
20
10
00
30
48
88
88
88
90
60
ENDCHAR
STARTCHAR oacute
ENCODING 243
SWIDTH 566 0
DWIDTH 7 0
BBX 5 10 1 0
BITMAP
10
20
00
30
48
88
88
88
90
60
ENDCHAR
STARTCHAR ocircumflex
ENCODING 244
SWIDTH 566 0
DWIDTH 7 0
BBX 5 10 1 0
BITMAP
20
50
00
30
48
88
88
88
90
60
ENDCHAR
STARTCHAR otilde
ENCODING 245
SWIDTH 566 0
DWIDTH 7 0
BBX 6 10 1 0
BITMAP
34
58
00
30
48
88
88
88
90
60
ENDCHAR
STARTCHAR odieresis
ENCODING 246
SWIDTH 566 0
DWIDTH 7 0
BBX 5 9 1 0
BITMAP
48
00
30
48
88
88
88
90
60
ENDCHAR
STARTCHAR divide
ENCODING 247
SWIDTH 633 0
DWIDTH 8 0
BBX 6 7 1 1
BITMAP
10
10
00
FC
00
20
20
ENDCHAR
STARTCHAR oslash
ENCODING 248
SWIDTH 566 0
DWIDTH 7 0
BBX 7 7 0 0
BITMAP
1A
24
4C
54
64
48
B0
ENDCHAR
STARTCHAR ugrave
ENCODING 249
SWIDTH 620 0
DWIDTH 8 0
BBX 6 10 1 0
BITMAP
10
08
00
44
44
44
88
88
98
68
ENDCHAR
STARTCHAR uacute
ENCODING 250
SWIDTH 620 0
DWIDTH 8 0
BBX 6 10 1 0
BITMAP
08
10
00
44
44
44
88
88
98
68
ENDCHAR
STARTCHAR ucircumflex
ENCODING 251
SWIDTH 620 0
DWIDTH 8 0
BBX 6 10 1 0
BITMAP
10
28
00
44
44
44
88
88
98
68
ENDCHAR
STARTCHAR udieresis
ENCODING 252
SWIDTH 620 0
DWIDTH 8 0
BBX 6 9 1 0
BITMAP
24
00
44
44
44
88
88
98
68
ENDCHAR
STARTCHAR yacute
ENCODING 253
SWIDTH 548 0
DWIDTH 6 0
BBX 7 12 -1 -2
BITMAP
04
08
00
22
22
22
24
28
30
20
40
80
ENDCHAR
STARTCHAR thorn
ENCODING 254
SWIDTH 608 0
DWIDTH 8 0
BBX 7 11 0 -2
BITMAP
20
20
2C
32
42
42
44
44
78
80
80
ENDCHAR
STARTCHAR ydieresis
ENCODING 255
SWIDTH 548 0
DWIDTH 6 0
BBX 7 11 -1 -2
BITMAP
12
00
22
22
22
24
28
30
20
40
80
ENDCHAR
STARTCHAR uni0400
ENCODING 1024
SWIDTH 547 0
DWIDTH 7 0
BBX 6 11 1 0
BITMAP
10
08
00
7C
40
40
F0
80
80
80
F8
ENDCHAR
STARTCHAR afii10023
ENCODING 1025
SWIDTH 547 0
DWIDTH 7 0
BBX 6 10 1 0
BITMAP
24
00
7C
40
40
F0
80
80
80
F8
ENDCHAR
STARTCHAR afii10051
ENCODING 1026
SWIDTH 916 0
DWIDTH 11 0
BBX 8 9 1 0
BITMAP
FE
10
10
1E
31
21
21
22
24
ENDCHAR
STARTCHAR afii10052
ENCODING 1027
SWIDTH 500 0
DWIDTH 6 0
BBX 6 11 1 0
BITMAP
08
10
00
7C
40
40
C0
80
80
80
80
ENDCHAR
STARTCHAR afii10053
ENCODING 1028
SWIDTH 666 0
DWIDTH 8 0
BBX 7 9 1 0
BITMAP
0C
32
40
40
F8
80
80
C4
78
ENDCHAR
STARTCHAR afii10054
ENCODING 1029
SWIDTH 553 0
DWIDTH 7 0
BBX 6 9 1 0
BITMAP
38
44
40
60
30
18
08
88
70
ENDCHAR
STARTCHAR afii10055
ENCODING 1030
SWIDTH 289 0
DWIDTH 4 0
BBX 2 9 1 0
BITMAP
40
40
40
40
C0
80
80
80
80
ENDCHAR
STARTCHAR afii10056
ENCODING 1031
SWIDTH 289 0
DWIDTH 4 0
BBX 3 10 1 0
BITMAP
A0
00
40
40
40
C0
80
80
80
80
ENDCHAR
STARTCHAR afii10057
ENCODING 1032
SWIDTH 408 0
DWIDTH 5 0
BBX 4 11 0 -2
BITMAP
10
10
10
10
30
20
20
20
20
60
C0
ENDCHAR
STARTCHAR afii10058
ENCODING 1033
SWIDTH 1000 0
DWIDTH 12 0
BBX 11 9 0 0
BITMAP
1F00
1100
1100
11C0
2120
2220
2220
4220
83C0
ENDCHAR
STARTCHAR afii10059
ENCODING 1034
SWIDTH 1000 0
DWIDTH 12 0
BBX 10 9 1 0
BITMAP
4200
4200
4200
7F80
C640
8440
8440
8440
8780
ENDCHAR
STARTCHAR afii10060
ENCODING 1035
SWIDTH 916 0
DWIDTH 11 0
BBX 8 9 1 0
BITMAP
FE
10
10
1E
31
21
21
21
21
ENDCHAR
STARTCHAR afii10061
ENCODING 1036
SWIDTH 666 0
DWIDTH 8 0
BBX 7 11 1 0
BITMAP
04
08
00
42
44
48
F0
90
88
8C
86
ENDCHAR
STARTCHAR afii10062
ENCODING 1038
SWIDTH 666 0
DWIDTH 8 0
BBX 7 11 1 0
BITMAP
1C
00
42
42
42
24
24
28
10
20
C0
ENDCHAR
STARTCHAR afii10145
ENCODING 1039
SWIDTH 750 0
DWIDTH 9 0
BBX 7 10 1 -1
BITMAP
42
42
42
42
84
84
84
84
FC
20
ENDCHAR
STARTCHAR afii10017
ENCODING 1040
SWIDTH 666 0
DWIDTH 8 0
BBX 6 9 1 0
BITMAP
04
0C
14
24
44
7C
84
84
84
ENDCHAR
STARTCHAR afii10018
ENCODING 1041
SWIDTH 583 0
DWIDTH 7 0
BBX 6 9 1 0
BITMAP
7C
40
40
70
88
88
88
88
F0
ENDCHAR
STARTCHAR afii10019
ENCODING 1042
SWIDTH 583 0
DWIDTH 7 0
BBX 6 9 1 0
BITMAP
78
44
44
48
F8
84
84
88
F0
ENDCHAR
STARTCHAR afii10020
ENCODING 1043
SWIDTH 500 0
DWIDTH 6 0
BBX 6 9 1 0
BITMAP
7C
40
40
40
C0
80
80
80
80
ENDCHAR
STARTCHAR afii10021
ENCODING 1044
SWIDTH 750 0
DWIDTH 9 0
BBX 8 10 0 -1
BITMAP
1F
11
11
11
22
22
42
42
FF
82
ENDCHAR
STARTCHAR afii10022
ENCODING 1045
SWIDTH 583 0
DWIDTH 7 0
BBX 6 9 1 0
BITMAP
7C
40
40
40
F0
80
80
80
F8
ENDCHAR
STARTCHAR afii10024
ENCODING 1046
SWIDTH 916 0
DWIDTH 11 0
BBX 11 9 0 0
BITMAP
2220
1240
0A80
0700
0E00
1500
2480
64C0
C460
ENDCHAR
STARTCHAR afii10025
ENCODING 1047
SWIDTH 583 0
DWIDTH 7 0
BBX 6 9 0 0
BITMAP
38
44
04
08
38
04
04
88
70
ENDCHAR
STARTCHAR afii10026
ENCODING 1048
SWIDTH 750 0
DWIDTH 9 0
BBX 7 9 1 0
BITMAP
42
46
4A
4A
54
94
A4
C4
84
ENDCHAR
STARTCHAR afii10027
ENCODING 1049
SWIDTH 750 0
DWIDTH 9 0
BBX 7 11 1 0
BITMAP
1C
00
42
46
4A
4A
54
94
A4
C4
84
ENDCHAR
STARTCHAR afii10028
ENCODING 1050
SWIDTH 666 0
DWIDTH 8 0
BBX 7 9 1 0
BITMAP
42
44
48
50
E0
90
88
8C
86
ENDCHAR
STARTCHAR afii10029
ENCODING 1051
SWIDTH 750 0
DWIDTH 9 0
BBX 8 9 0 0
BITMAP
1F
11
11
11
21
22
22
42
82
ENDCHAR
STARTCHAR afii10030
ENCODING 1052
SWIDTH 916 0
DWIDTH 11 0
BBX 9 9 1 0
BITMAP
7380
5280
5280
5480
5480
8900
8900
8100
8100
ENDCHAR
STARTCHAR afii10031
ENCODING 1053
SWIDTH 750 0
DWIDTH 9 0
BBX 7 9 1 0
BITMAP
42
42
42
42
FE
84
84
84
84
ENDCHAR
STARTCHAR afii10032
ENCODING 1054
SWIDTH 833 0
DWIDTH 10 0
BBX 8 9 1 0
BITMAP
0E
33
41
41
81
82
82
CC
70
ENDCHAR
STARTCHAR afii10033
ENCODING 1055
SWIDTH 750 0
DWIDTH 9 0
BBX 7 9 1 0
BITMAP
7E
42
42
42
42
84
84
84
84
ENDCHAR
STARTCHAR afii10034
ENCODING 1056
SWIDTH 583 0
DWIDTH 7 0
BBX 6 9 1 0
BITMAP
78
44
44
44
88
F0
80
80
80
ENDCHAR
STARTCHAR afii10035
ENCODING 1057
SWIDTH 666 0
DWIDTH 8 0
BBX 7 9 1 0
BITMAP
0C
32
40
40
80
80
80
C4
78
ENDCHAR
STARTCHAR afii10036
ENCODING 1058
SWIDTH 666 0
DWIDTH 8 0
BBX 7 9 1 0
BITMAP
FE
10
10
10
30
20
20
20
20
ENDCHAR
STARTCHAR afii10037
ENCODING 1059
SWIDTH 666 0
DWIDTH 8 0
BBX 7 9 1 0
BITMAP
42
42
42
24
24
28
10
20
C0
ENDCHAR
STARTCHAR afii10038
ENCODING 1060
SWIDTH 833 0
DWIDTH 10 0
BBX 8 9 1 0
BITMAP
08
3E
49
89
91
91
92
7C
10
ENDCHAR
STARTCHAR afii10039
ENCODING 1061
SWIDTH 666 0
DWIDTH 8 0
BBX 8 9 0 0
BITMAP
61
21
12
14
18
28
48
84
86
ENDCHAR
STARTCHAR afii10040
ENCODING 1062
SWIDTH 750 0
DWIDTH 9 0
BBX 7 10 1 -1
BITMAP
42
42
42
42
84
84
84
84
FE
04
ENDCHAR
STARTCHAR afii10041
ENCODING 1063
SWIDTH 750 0
DWIDTH 9 0
BBX 6 9 2 0
BITMAP
84
84
84
84
8C
78
08
08
08
ENDCHAR
STARTCHAR afii10042
ENCODING 1064
SWIDTH 1000 0
DWIDTH 12 0
BBX 10 9 1 0
BITMAP
4440
4440
4440
4440
8880
8880
8880
8880
FF80
ENDCHAR
STARTCHAR afii10043
ENCODING 1065
SWIDTH 1000 0
DWIDTH 12 0
BBX 10 10 1 -1
BITMAP
4440
4440
4440
4440
8880
8880
8880
8880
FFC0
0080
ENDCHAR
STARTCHAR afii10044
ENCODING 1066
SWIDTH 666 0
DWIDTH 8 0
BBX 6 9 1 0
BITMAP
E0
20
20
38
44
44
44
44
78
ENDCHAR
STARTCHAR afii10045
ENCODING 1067
SWIDTH 916 0
DWIDTH 11 0
BBX 9 9 1 0
BITMAP
4080
4080
4080
7080
8900
8900
8900
8900
F100
ENDCHAR
STARTCHAR afii10046
ENCODING 1068
SWIDTH 583 0
DWIDTH 7 0
BBX 5 9 1 0
BITMAP
40
40
40
70
88
88
88
88
F0
ENDCHAR
STARTCHAR afii10047
ENCODING 1069
SWIDTH 750 0
DWIDTH 9 0
BBX 8 9 0 0
BITMAP
0E
13
01
01
0F
02
02
84
78
ENDCHAR
STARTCHAR afii10048
ENCODING 1070
SWIDTH 1083 0
DWIDTH 13 0
BBX 11 9 1 0
BITMAP
41C0
4660
4820
4820
7020
9040
9040
9980
8E00
ENDCHAR
STARTCHAR afii10049
ENCODING 1071
SWIDTH 666 0
DWIDTH 8 0
BBX 7 9 0 0
BITMAP
1E
22
22
22
1E
14
24
24
C4
ENDCHAR
STARTCHAR afii10065
ENCODING 1072
SWIDTH 666 0
DWIDTH 8 0
BBX 6 7 1 0
BITMAP
3C
44
44
84
88
98
68
ENDCHAR
STARTCHAR afii10066
ENCODING 1073
SWIDTH 583 0
DWIDTH 7 0
BBX 6 10 1 0
BITMAP
1C
20
40
70
C8
88
88
88
90
60
ENDCHAR
STARTCHAR afii10067
ENCODING 1074
SWIDTH 583 0
DWIDTH 7 0
BBX 6 10 1 0
BITMAP
18
24
24
48
50
88
88
88
90
60
ENDCHAR
STARTCHAR afii10068
ENCODING 1075
SWIDTH 583 0
DWIDTH 7 0
BBX 5 7 1 0
BITMAP
30
48
08
70
80
88
70
ENDCHAR
STARTCHAR afii10069
ENCODING 1076
SWIDTH 583 0
DWIDTH 7 0
BBX 5 10 1 0
BITMAP
20
10
08
38
48
88
88
88
90
60
ENDCHAR
STARTCHAR afii10070
ENCODING 1077
SWIDTH 500 0
DWIDTH 6 0
BBX 5 7 1 0
BITMAP
30
48
88
F0
80
80
70
ENDCHAR
STARTCHAR afii10072
ENCODING 1078
SWIDTH 833 0
DWIDTH 10 0
BBX 10 7 0 0
BITMAP
4440
2480
1500
1E00
2900
4880
8840
ENDCHAR
STARTCHAR afii10073
ENCODING 1079
SWIDTH 583 0
DWIDTH 7 0
BBX 6 7 0 0
BITMAP
38
44
04
18
08
88
70
ENDCHAR
STARTCHAR afii10074
ENCODING 1080
SWIDTH 666 0
DWIDTH 8 0
BBX 6 7 1 0
BITMAP
44
44
44
88
88
98
68
ENDCHAR
STARTCHAR afii10075
ENCODING 1081
SWIDTH 666 0
DWIDTH 8 0
BBX 6 9 1 0
BITMAP
18
00
44
44
44
88
88
98
68
ENDCHAR
STARTCHAR afii10076
ENCODING 1082
SWIDTH 583 0
DWIDTH 7 0
BBX 6 7 1 0
BITMAP
44
48
50
60
90
88
84
ENDCHAR
STARTCHAR afii10077
ENCODING 1083
SWIDTH 666 0
DWIDTH 8 0
BBX 7 7 0 0
BITMAP
1E
12
12
22
24
44
84
ENDCHAR
STARTCHAR afii10078
ENCODING 1084
SWIDTH 833 0
DWIDTH 10 0
BBX 8 7 1 0
BITMAP
63
63
55
59
92
92
82
ENDCHAR
STARTCHAR afii10079
ENCODING 1085
SWIDTH 666 0
DWIDTH 8 0
BBX 6 7 1 0
BITMAP
44
44
44
7C
88
88
88
ENDCHAR
STARTCHAR afii10080
ENCODING 1086
SWIDTH 583 0
DWIDTH 7 0
BBX 5 7 1 0
BITMAP
30
48
88
88
88
90
60
ENDCHAR
STARTCHAR afii10081
ENCODING 1087
SWIDTH 666 0
DWIDTH 8 0
BBX 6 7 1 0
BITMAP
5C
64
44
44
88
88
88
ENDCHAR
STARTCHAR afii10082
ENCODING 1088
SWIDTH 666 0
DWIDTH 8 0
BBX 7 9 0 -2
BITMAP
2C
32
22
42
44
44
78
80
80
ENDCHAR
STARTCHAR afii10083
ENCODING 1089
SWIDTH 500 0
DWIDTH 6 0
BBX 5 7 1 0
BITMAP
30
48
80
80
80
80
70
ENDCHAR
STARTCHAR afii10084
ENCODING 1090
SWIDTH 1000 0
DWIDTH 12 0
BBX 10 7 1 0
BITMAP
5DC0
6640
4440
4440
8880
8880
8880
ENDCHAR
STARTCHAR afii10085
ENCODING 1091
SWIDTH 500 0
DWIDTH 6 0
BBX 7 9 -1 -2
BITMAP
22
22
22
24
28
30
20
40
80
ENDCHAR
STARTCHAR afii10086
ENCODING 1092
SWIDTH 1000 0
DWIDTH 12 0
BBX 10 12 1 -2
BITMAP
0200
0200
0200
3580
4E40
4440
8840
8880
9C80
6B00
1000
1000
ENDCHAR
STARTCHAR afii10087
ENCODING 1093
SWIDTH 583 0
DWIDTH 7 0
BBX 6 7 1 0
BITMAP
44
44
28
30
50
88
88
ENDCHAR
STARTCHAR afii10088
ENCODING 1094
SWIDTH 666 0
DWIDTH 8 0
BBX 6 8 1 -1
BITMAP
44
44
44
88
88
98
6C
04
ENDCHAR
STARTCHAR afii10089
ENCODING 1095
SWIDTH 666 0
DWIDTH 8 0
BBX 5 7 2 0
BITMAP
88
88
88
90
70
10
10
ENDCHAR
STARTCHAR afii10090
ENCODING 1096
SWIDTH 1000 0
DWIDTH 12 0
BBX 10 7 1 0
BITMAP
4440
4440
4440
8880
8880
9980
EE80
ENDCHAR
STARTCHAR afii10091
ENCODING 1097
SWIDTH 1000 0
DWIDTH 12 0
BBX 10 8 1 -1
BITMAP
4440
4440
4440
8880
8880
9980
EEC0
0040
ENDCHAR
STARTCHAR afii10092
ENCODING 1098
SWIDTH 583 0
DWIDTH 7 0
BBX 5 7 1 0
BITMAP
C0
40
70
C8
88
90
60
ENDCHAR
STARTCHAR afii10093
ENCODING 1099
SWIDTH 916 0
DWIDTH 11 0
BBX 9 7 1 0
BITMAP
4080
4080
7080
C880
8900
9100
6100
ENDCHAR
STARTCHAR afii10094
ENCODING 1100
SWIDTH 583 0
DWIDTH 7 0
BBX 5 7 1 0
BITMAP
40
40
70
C8
88
90
60
ENDCHAR
STARTCHAR afii10095
ENCODING 1101
SWIDTH 500 0
DWIDTH 6 0
BBX 5 7 0 0
BITMAP
70
08
08
38
08
90
60
ENDCHAR
STARTCHAR afii10096
ENCODING 1102
SWIDTH 833 0
DWIDTH 10 0
BBX 8 7 1 0
BITMAP
46
49
51
F1
91
92
8C
ENDCHAR
STARTCHAR afii10097
ENCODING 1103
SWIDTH 666 0
DWIDTH 8 0
BBX 7 7 0 0
BITMAP
1E
22
22
1E
14
24
C4
ENDCHAR
STARTCHAR uni0450
ENCODING 1104
SWIDTH 529 0
DWIDTH 6 0
BBX 5 10 1 0
BITMAP
20
10
00
30
48
88
F0
80
80
70
ENDCHAR
STARTCHAR afii10071
ENCODING 1105
SWIDTH 529 0
DWIDTH 6 0
BBX 5 9 1 0
BITMAP
48
00
30
48
88
F0
80
80
70
ENDCHAR
STARTCHAR afii10099
ENCODING 1106
SWIDTH 666 0
DWIDTH 8 0
BBX 6 12 1 -2
BITMAP
20
78
20
5C
64
44
44
88
88
90
10
20
ENDCHAR
STARTCHAR afii10100
ENCODING 1107
SWIDTH 583 0
DWIDTH 7 0
BBX 5 10 1 0
BITMAP
08
10
00
30
48
08
70
80
88
70
ENDCHAR
STARTCHAR afii10101
ENCODING 1108
SWIDTH 500 0
DWIDTH 6 0
BBX 5 7 1 0
BITMAP
30
48
80
E0
80
80
70
ENDCHAR
STARTCHAR afii10102
ENCODING 1109
SWIDTH 489 0
DWIDTH 6 0
BBX 6 7 0 0
BITMAP
38
44
60
30
18
88
70
ENDCHAR
STARTCHAR afii10103
ENCODING 1110
SWIDTH 289 0
DWIDTH 4 0
BBX 3 10 1 0
BITMAP
20
20
00
40
40
40
40
80
80
80
ENDCHAR
STARTCHAR afii10104
ENCODING 1111
SWIDTH 289 0
DWIDTH 4 0
BBX 3 9 1 0
BITMAP
A0
00
40
40
40
40
80
80
80
ENDCHAR
STARTCHAR afii10105
ENCODING 1112
SWIDTH 325 0
DWIDTH 4 0
BBX 5 12 -1 -2
BITMAP
08
08
00
10
10
10
10
10
20
20
20
C0
ENDCHAR
STARTCHAR afii10106
ENCODING 1113
SWIDTH 916 0
DWIDTH 11 0
BBX 10 7 0 0
BITMAP
1E00
1200
1380
2640
2440
4480
8300
ENDCHAR
STARTCHAR afii10107
ENCODING 1114
SWIDTH 916 0
DWIDTH 11 0
BBX 9 7 1 0
BITMAP
4400
4400
4700
7C80
8880
8900
8600
ENDCHAR
STARTCHAR afii10108
ENCODING 1115
SWIDTH 666 0
DWIDTH 8 0
BBX 6 10 1 0
BITMAP
20
78
20
5C
64
44
44
88
88
88
ENDCHAR
STARTCHAR afii10109
ENCODING 1116
SWIDTH 583 0
DWIDTH 7 0
BBX 6 10 1 0
BITMAP
08
10
00
44
48
50
60
90
88
84
ENDCHAR
STARTCHAR afii10110
ENCODING 1118
SWIDTH 500 0
DWIDTH 6 0
BBX 7 11 -1 -2
BITMAP
0C
00
22
22
22
24
28
30
20
40
80
ENDCHAR
STARTCHAR afii10193
ENCODING 1119
SWIDTH 666 0
DWIDTH 8 0
BBX 6 8 1 -1
BITMAP
44
44
44
88
88
98
68
20
ENDCHAR
STARTCHAR afii10146
ENCODING 1122
SWIDTH 666 0
DWIDTH 8 0
BBX 6 10 1 0
BITMAP
20
F8
20
20
38
44
44
44
44
78
ENDCHAR
STARTCHAR afii10194
ENCODING 1123
SWIDTH 583 0
DWIDTH 7 0
BBX 5 10 1 0
BITMAP
20
20
20
F0
40
70
C8
88
90
60
ENDCHAR
STARTCHAR afii10147
ENCODING 1138
SWIDTH 833 0
DWIDTH 10 0
BBX 8 9 1 0
BITMAP
0E
33
41
41
FF
82
82
CC
70
ENDCHAR
STARTCHAR afii10195
ENCODING 1139
SWIDTH 583 0
DWIDTH 7 0
BBX 5 7 1 0
BITMAP
30
48
88
F8
88
90
60
ENDCHAR
STARTCHAR afii10148
ENCODING 1140
SWIDTH 666 0
DWIDTH 8 0
BBX 6 9 2 0
BITMAP
84
88
88
90
90
A0
A0
C0
80
ENDCHAR
STARTCHAR afii10196
ENCODING 1141
SWIDTH 500 0
DWIDTH 6 0
BBX 5 7 1 0
BITMAP
88
90
90
A0
C0
C0
80
ENDCHAR
STARTCHAR afii10050
ENCODING 1168
SWIDTH 500 0
DWIDTH 6 0
BBX 6 10 1 0
BITMAP
04
7C
40
40
40
C0
80
80
80
80
ENDCHAR
STARTCHAR afii10098
ENCODING 1169
SWIDTH 500 0
DWIDTH 6 0
BBX 5 8 1 0
BITMAP
08
78
40
40
C0
80
80
80
ENDCHAR
STARTCHAR uni04AA
ENCODING 1194
SWIDTH 679 0
DWIDTH 8 0
BBX 7 11 1 -2
BITMAP
0C
32
40
40
80
80
80
C4
78
20
C0
ENDCHAR
STARTCHAR uni04AB
ENCODING 1195
SWIDTH 503 0
DWIDTH 6 0
BBX 5 9 1 -2
BITMAP
30
48
80
80
80
80
70
20
C0
ENDCHAR
STARTCHAR uni04AE
ENCODING 1198
SWIDTH 608 0
DWIDTH 7 0
BBX 6 9 1 0
BITMAP
84
84
88
88
90
60
40
40
40
ENDCHAR
STARTCHAR uni04C0
ENCODING 1216
SWIDTH 289 0
DWIDTH 4 0
BBX 2 9 1 0
BITMAP
40
40
40
40
C0
80
80
80
80
ENDCHAR
STARTCHAR uni04D2
ENCODING 1234
SWIDTH 687 0
DWIDTH 8 0
BBX 7 10 1 0
BITMAP
12
00
0C
14
24
44
7C
84
84
84
ENDCHAR
STARTCHAR uni04D3
ENCODING 1235
SWIDTH 608 0
DWIDTH 8 0
BBX 6 9 1 0
BITMAP
24
00
3C
44
44
84
88
98
68
ENDCHAR
STARTCHAR uni04D4
ENCODING 1236
SWIDTH 893 0
DWIDTH 11 0
BBX 10 9 1 0
BITMAP
07C0
0C00
1400
2400
4780
7800
8800
8800
8F80
ENDCHAR
STARTCHAR uni04D5
ENCODING 1237
SWIDTH 893 0
DWIDTH 11 0
BBX 9 7 1 0
BITMAP
3300
4C80
0880
7F00
8800
9800
6700
ENDCHAR
STARTCHAR uni04E6
ENCODING 1254
SWIDTH 777 0
DWIDTH 10 0
BBX 8 10 1 0
BITMAP
12
00
0E
33
41
41
82
82
CC
70
ENDCHAR
STARTCHAR uni04E7
ENCODING 1255
SWIDTH 566 0
DWIDTH 7 0
BBX 5 9 1 0
BITMAP
48
00
30
48
88
88
88
90
60
ENDCHAR
STARTCHAR uni04E8
ENCODING 1256
SWIDTH 833 0
DWIDTH 10 0
BBX 8 9 1 0
BITMAP
0E
33
41
41
FF
82
82
CC
70
ENDCHAR
STARTCHAR uni04E9
ENCODING 1257
SWIDTH 583 0
DWIDTH 7 0
BBX 5 7 1 0
BITMAP
30
48
88
F8
88
90
60
ENDCHAR
ENDFONT
